<svg width="38" height="35" viewBox="0 0 38 35" fill="none" xmlns="http://www.w3.org/2000/svg">
<path d="M13.7418 0C6.66239 0 0.884033 5.50524 0.884033 12.25C0.884033 18.9948 6.66239 24.5 13.7418 24.5C16.9525 24.5 19.8859 23.359 22.1438 21.4922L22.9258 22.2373V24.5L33.9468 35L37.6204 31.5L26.5995 21H24.2245L23.4425 20.2549C25.4019 18.1038 26.5995 15.309 26.5995 12.25C26.5995 5.50524 20.8211 0 13.7418 0ZM13.7418 3.5C18.8357 3.5 22.9258 7.39678 22.9258 12.25C22.9258 17.1032 18.8357 21 13.7418 21C8.64777 21 4.55767 17.1032 4.55767 12.25C4.55767 7.39678 8.64777 3.5 13.7418 3.5Z" fill="black" fill-opacity="0.52"/>
</svg>
